HIERARCHY
ROOT Hips
{
	OFFSET -3.958830 18.904000 13.208200
	CHANNELS 6 Xposition Yposition Zposition Zrotation Yrotation Xrotation 
	JOINT LHipJoint
	{
		OFFSET 0.000000 0.000000 0.000000
		CHANNELS 3 Zrotation Yrotation Xrotation
		JOINT LeftUpLeg
		{
			OFFSET 1.800000 -1.400000 0.085000
			CHANNELS 3 Zrotation Yrotation Xrotation
			JOINT LeftLeg
			{
				OFFSET 2.215000 -6.000000 0.000000
				CHANNELS 3 Zrotation Yrotation Xrotation
				JOINT LeftFoot
				{
					OFFSET 2.500000 -6.900000 0.000000
					CHANNELS 3 Zrotation Yrotation Xrotation
					JOINT LeftToeBase
					{
						OFFSET 0.200000 -0.500000 1.950000
						CHANNELS 3 Zrotation Yrotation Xrotation
						End Site
						{
							OFFSET 0.000000 0.000000 0.000000
						}
					}
				}
			}
		}
	}
	JOINT RHipJoint
	{
		OFFSET 0.000000 0.000000 0.000000
		CHANNELS 3 Zrotation Yrotation Xrotation
		JOINT RightUpLeg
		{
			OFFSET -1.800000 -1.400000 0.085000
			CHANNELS 3 Zrotation Yrotation Xrotation
			JOINT RightLeg
			{
				OFFSET -2.215000 -6.000000 0.000000
				CHANNELS 3 Zrotation Yrotation Xrotation
				JOINT RightFoot
				{
					OFFSET -2.500000 -6.900000 0.000000
					CHANNELS 3 Zrotation Yrotation Xrotation
					JOINT RightToeBase
					{
						OFFSET -0.200000 -0.500000 1.950000
						CHANNELS 3 Zrotation Yrotation Xrotation
						End Site
						{
							OFFSET 0.000000 0.000000 0.000000
						}
					}
				}
			}
		}
	}
	JOINT LowerBack
	{
		OFFSET 0.000000 0.000000 0.000000
		CHANNELS 3 Zrotation Yrotation Xrotation
		JOINT Spine
		{
			OFFSET -0.087000 1.940000 -0.288900
			CHANNELS 3 Zrotation Yrotation Xrotation
			JOINT Spine1
			{
				OFFSET 0.000000 1.950000 0.060000
				CHANNELS 3 Zrotation Yrotation Xrotation
				JOINT Neck
				{
					OFFSET 0.000000 0.000000 0.000000
					CHANNELS 3 Zrotation Yrotation Xrotation
					JOINT Neck1
					{
						OFFSET 0.000000 1.600000 0.340000
						CHANNELS 3 Zrotation Yrotation Xrotation
						JOINT Head
						{
							OFFSET 0.000000 1.667000 -0.240000
							CHANNELS 3 Zrotation Yrotation Xrotation
							End Site
							{
								OFFSET 0.000000 0.000000 0.000000
							}
						}
					}
				}
				JOINT LeftShoulder
				{
					OFFSET 0.000000 0.000000 0.000000
					CHANNELS 3 Zrotation Yrotation Xrotation
					JOINT LeftArm
					{
						OFFSET 2.700000 1.550000 -0.730000
						CHANNELS 3 Zrotation Yrotation Xrotation
						JOINT LeftForeArm
						{
							OFFSET 5.450000 0.000000 0.000000
							CHANNELS 3 Zrotation Yrotation Xrotation
							JOINT LeftHand
							{
								OFFSET 3.450000 0.000000 0.000000
								CHANNELS 3 Zrotation Yrotation Xrotation
								JOINT LeftHandIndex1
								{
									OFFSET 0.750000 0.000000 0.000000
									CHANNELS 3 Zrotation Yrotation Xrotation
									End Site
									{
										OFFSET 0.000000 0.000000 0.000000
									}
								}
							}
						}
					}
				}
				JOINT RightShoulder
				{
					OFFSET 0.000000 0.000000 0.000000
					CHANNELS 3 Zrotation Yrotation Xrotation
					JOINT RightArm
					{
						OFFSET -2.700000 1.550000 -0.730000
						CHANNELS 3 Zrotation Yrotation Xrotation
						JOINT RightForeArm
						{
							OFFSET -5.450000 0.000000 0.000000
							CHANNELS 3 Zrotation Yrotation Xrotation
							JOINT RightHand
							{
								OFFSET -3.450000 0.000000 0.000000
								CHANNELS 3 Zrotation Yrotation Xrotation
								JOINT RightHandIndex1
								{
									OFFSET -0.750000 0.000000 0.000000
									CHANNELS 3 Zrotation Yrotation Xrotation
									End Site
									{
										OFFSET 0.000000 0.000000 0.000000
									}
								}
							}
						}
					}
				}
			}
		}
	}
}
MOTION
Frames: 11
Frame Time: 0.016667
3.213460 17.404940 -4.321320 -10.517618 33.159564 -8.571417 -15.472957 13.976288 2.408508 8.563272 -1.433491 -2.999662 -4.656554 9.177131 30.075059 0.115277 6.613422 2.242828 0.230260 0.114400 0.177970 18.003368 -10.003316 3.773082 7.751449 6.534062 -35.164727 -11.919786 -0.800157 39.098612 -0.342080 -4.499369 2.693009 0.186840 0.108510 0.049550 -3.506404 -3.193208 -7.904191 3.244707 -9.396053 22.105344 -11.102843 -7.275670 10.498820 5.511275 -1.490853 -5.545184 -5.963942 4.373732 47.495517 -1.181200 2.420820 -4.127810 -24.466525 -0.883561 -0.252503 -43.668089 -10.887383 -9.174086 54.747311 -81.415662 -46.251819 -3.323056 1.802927 0.256730 0.081890 -0.033460 0.048890 14.710022 -1.434530 3.502795 29.577115 -0.434139 -6.271617 40.403713 82.343303 28.461137 2.111120 -2.065460 -0.174650 0.190240 0.037290 -0.154980 
3.137980 17.219990 -4.373640 -10.552879 36.574286 -7.163421 -15.538612 13.983499 2.516662 9.655717 -1.123781 -1.824972 -7.094276 9.538626 26.207073 0.137245 6.476346 2.327859 0.207750 0.099280 0.138320 17.926782 -9.995547 3.618409 7.399585 5.569454 -34.341021 -8.928956 -1.001732 25.645497 0.050869 -2.478323 3.432085 0.177530 0.153810 0.052940 -3.347328 -3.238112 -7.802821 2.640809 -8.948837 18.816943 -10.937895 -6.724829 10.642453 5.886447 -0.865421 -5.724958 -4.812914 3.865703 47.590113 -0.716300 1.801130 -2.166610 -24.112144 -1.967531 0.159578 -44.544095 -13.452606 -6.440183 16.708768 -69.666460 -13.424629 -3.585270 2.953569 0.205220 0.117550 -0.066610 0.067610 13.600826 -0.421651 3.409770 28.591825 0.071849 -7.260638 25.213887 75.231318 15.463595 2.013471 -2.055494 -0.167670 0.185600 0.038280 -0.126620 
3.075020 17.036570 -4.430590 -10.143913 40.756659 -6.354702 -15.629245 14.021247 2.595250 10.033696 -0.747424 -0.431910 -8.188910 9.384428 22.881742 0.154947 6.272129 2.420109 0.222150 0.131290 0.128100 17.832247 -9.956133 3.486872 5.882307 4.641776 -33.361453 -5.311513 -1.350812 15.785094 0.213681 -1.468582 3.815647 0.184920 0.154210 0.054320 -3.091542 -3.392754 -7.737315 1.185189 -8.340047 16.704134 -9.861055 -6.152286 10.751489 5.980960 0.098081 -6.062353 -3.305215 2.799893 48.919535 0.077910 0.740790 -1.486170 -23.331792 -3.679407 0.304511 -44.608935 -15.966151 -4.471675 5.326331 -55.823128 -4.454043 -3.649418 3.035901 0.183700 0.116470 -0.059860 0.084220 12.774350 1.061858 3.669198 27.042504 0.398807 -7.696479 15.348644 68.302542 8.228227 1.992523 -1.944701 -0.143390 0.179900 0.020420 -0.103610 
3.005340 16.880440 -4.488440 -9.459586 44.050463 -6.224512 -15.691362 14.051835 2.659409 10.055845 -0.530423 0.585407 -8.703218 9.380817 21.615251 0.186026 6.254585 2.430761 0.205030 0.106640 0.134800 17.759307 -9.878274 3.507086 4.823232 4.350361 -33.506147 -3.064676 -1.517387 11.441434 0.254699 -1.174853 3.923649 0.157190 0.133580 0.062040 -2.878977 -3.529227 -7.814953 -0.684120 -7.610658 16.580895 -9.369296 -5.514946 10.285986 6.042542 1.414061 -7.072390 -1.183474 1.289975 50.276835 -0.136320 0.067140 -0.795230 -23.946348 -7.978016 0.867135 -39.934706 -18.027746 -2.884767 3.815580 -39.319214 -2.397084 -3.719609 2.982101 0.189430 0.109450 -0.046230 0.066070 13.270933 4.837095 4.883996 25.498386 0.153995 -8.418986 5.830047 61.233111 2.604701 1.994618 -1.741419 -0.130710 0.160260 0.025530 -0.107920 
2.918880 16.758620 -4.557780 -8.738436 46.340313 -7.130227 -15.730212 14.192549 2.726560 9.907414 -0.488010 0.925963 -8.509934 9.565341 22.668446 0.230387 6.365361 2.378539 0.191230 0.086110 0.150390 17.683365 -9.812976 3.604497 4.713038 4.635134 -34.393646 -2.239755 -1.727739 13.098207 0.237441 -1.187387 3.911041 0.127260 0.095470 0.057000 -2.696790 -3.791479 -7.954926 -3.264195 -7.216220 18.608897 -8.799560 -5.436251 9.837502 5.672214 2.298794 -8.823248 0.228227 0.998953 52.123397 -0.011450 0.498560 -0.247960 -24.894754 -13.150915 2.467158 -32.970029 -17.892261 -1.477258 2.988157 -23.487391 -1.339296 -3.769796 2.935557 0.220060 0.083220 -0.017290 0.046260 14.854869 9.865035 6.144947 22.561594 0.718981 -8.864825 -1.579223 55.994814 -0.755888 2.006472 -1.546236 -0.125250 0.142360 0.023960 -0.122490 
2.837910 16.655570 -4.607130 -9.158306 47.345919 -8.758645 -15.710455 14.265861 2.656463 9.961697 -0.711745 0.144590 -7.090488 9.737742 26.006908 0.271695 6.592889 2.289880 0.143300 0.018300 0.124030 17.686450 -9.656836 3.949235 6.501092 6.298758 -36.679264 -3.352548 -1.745175 18.982644 0.200257 -1.520578 3.783717 0.081620 0.104800 0.058850 -2.792120 -3.902861 -8.184347 -3.903731 -7.020435 21.891463 -8.055387 -5.620245 8.400420 4.919387 2.354781 -10.208268 0.153065 0.930267 51.241113 0.152900 0.318720 0.588380 -26.783820 -16.972651 4.161933 -26.080983 -16.167310 0.209602 -0.397093 -11.182314 -0.436531 -3.843938 2.879215 0.223210 0.083210 -0.031220 0.029850 17.966039 14.000415 6.685611 18.033383 1.024656 -9.482824 -9.694150 52.825220 -3.839064 2.009018 -1.422653 -0.132430 0.125740 0.048740 -0.123130 
2.746390 16.619290 -4.665370 -10.431878 49.038411 -11.391637 -15.694684 14.278519 2.476926 10.213698 -1.230937 -1.699810 -4.536505 9.593945 30.700533 0.277142 6.877063 2.162824 0.107560 -0.044670 0.146690 17.720789 -9.360236 4.438720 8.090029 8.749679 -39.496167 -4.684191 -1.872707 28.117162 0.038526 -2.478793 3.420168 0.041760 0.086480 0.065020 -2.925339 -4.003646 -8.411000 -4.436767 -7.191804 26.688005 -7.265392 -6.257195 7.314463 4.656847 3.137116 -11.554532 2.012377 0.884236 50.891653 -0.782860 1.790340 0.619310 -28.237310 -19.958446 6.186146 -20.273547 -12.773807 0.769547 -2.322286 -4.099656 -0.363454 -3.879102 2.789242 0.258780 0.080280 -0.020530 -0.002760 19.659821 16.775406 6.539431 13.548622 2.999178 -9.686839 -14.731908 50.038644 -5.268924 2.017374 -1.329929 -0.152110 0.112300 0.067440 -0.156760 
2.646880 16.638230 -4.753550 -12.338932 49.297837 -14.629023 -15.678062 14.119729 2.226006 10.387923 -1.564451 -3.278954 -2.170135 9.400755 35.024499 0.282101 7.201000 2.003357 0.115640 -0.057120 0.215260 17.823506 -8.890853 5.025592 8.564392 12.061961 -42.468007 -3.129722 -3.069884 38.245749 -0.252397 -3.981761 2.854939 0.033130 0.017490 0.062940 -3.158986 -4.002358 -8.659883 -3.359668 -7.437816 32.031790 -7.056396 -6.483146 6.577245 4.578949 2.715201 -12.342199 1.534026 1.904122 50.362761 -2.384220 3.679210 -1.366490 -28.709446 -21.577262 7.680472 -16.714085 -9.342606 0.721328 -2.759456 -1.598013 -0.484748 -3.839833 2.736419 0.319720 0.042450 0.019400 -0.047610 19.948079 19.139285 5.930834 9.179721 6.216544 -10.161449 -19.384087 48.784637 -6.563802 2.017943 -1.239794 -0.164320 0.099720 0.069240 -0.207870 
2.572080 16.671640 -4.823630 -13.182361 48.242494 -16.299086 -15.675565 13.752856 1.906061 10.212849 -1.449201 -4.640592 -0.609888 9.459572 38.275999 0.327705 7.537728 1.885805 0.084680 -0.095700 0.175780 17.984763 -8.249237 5.751703 7.492905 16.515147 -46.842997 0.392611 -5.651077 49.268612 -0.654538 -6.075106 2.150585 0.018110 0.043520 0.053850 -3.405448 -3.918618 -8.964988 -1.802201 -7.590148 35.868480 -7.299146 -6.220892 5.796173 4.346885 0.541749 -12.374018 -2.561126 3.316144 48.643661 -3.034650 3.160100 -2.042240 -28.231396 -21.738685 8.590151 -15.074456 -6.231647 0.766565 -2.888035 -0.515136 -0.585771 -3.814062 2.729015 0.328360 0.041250 0.000270 -0.047180 19.791782 21.523031 4.912394 3.574197 9.582964 -10.804334 -22.348691 52.507586 -7.927050 2.000357 -1.181949 -0.184560 0.124770 0.098600 -0.199040 
2.553100 16.721420 -4.892980 -15.100132 48.461757 -18.770294 -15.678050 13.466141 1.568459 10.142762 -1.208808 -5.198835 1.696562 8.845415 40.157267 0.337393 7.594010 1.860035 0.110890 -0.065600 0.208690 18.113449 -7.804490 6.278227 4.872978 20.144522 -51.031832 5.484413 -10.096841 58.690143 -1.175109 -8.321414 1.436032 0.030460 0.010820 0.052030 -3.723769 -3.682271 -9.165034 1.198197 -8.765212 38.920296 -8.714593 -6.358039 6.158661 4.811656 -0.384302 -12.217681 -3.852303 3.950514 47.065797 -4.486260 3.638230 -3.648130 -27.244432 -21.737040 9.390647 -13.473470 -3.376544 0.745770 -3.751429 0.120975 -0.690654 -3.751432 2.749004 0.339100 0.023950 0.021190 -0.048200 17.700439 22.468721 3.752870 -0.660549 12.826274 -11.087706 -25.104499 54.227264 -9.063695 1.988477 -1.141457 -0.175380 0.125470 0.079680 -0.208610 
2.577560 16.793080 -4.915960 -16.226626 48.789702 -20.591386 -15.685623 13.297977 1.294100 10.494656 -0.552737 -3.985798 2.670352 8.529835 39.297274 0.301205 7.448202 1.917345 0.117250 -0.062100 0.223550 18.189970 -7.510439 6.601483 0.641636 22.920705 -54.630960 12.673483 -16.632315 65.762649 -1.771714 -10.710130 0.746725 0.038080 -0.006110 0.041620 -3.950297 -3.514715 -9.287496 3.459388 -9.731445 40.903668 -9.737635 -6.534414 6.337931 5.094803 -1.806704 -11.843868 -6.200215 4.741928 45.771765 -5.886200 3.774090 -4.794750 -26.958126 -20.929524 9.966021 -12.618873 0.409068 0.508642 -4.128143 -1.227858 -0.671390 -3.665293 2.805786 0.351380 0.012030 0.024310 -0.055360 16.798386 22.989274 2.661061 -4.912678 15.793473 -11.060298 -26.935902 53.381516 -9.249380 2.011706 -1.113926 -0.184070 0.136190 0.079890 -0.219800 
